<svg width="16" height="17" viewBox="0 0 16 17" fill="none" xmlns="http://www.w3.org/2000/svg">
<g clip-path="url(#clip0_671_1393)">
<path d="M0 8.77142C0 4.35315 3.58172 0.771423 8 0.771423C12.4183 0.771423 16 4.35315 16 8.77142C16 13.1897 12.4183 16.7714 8 16.7714C3.58172 16.7714 0 13.1897 0 8.77142Z" fill="white"/>
<g filter="url(#filter0_b_671_1393)">
<rect width="16" height="16" transform="translate(0 0.771423)" fill="#8345E6"/>
<path d="M10.6176 6.83879C10.4206 6.72268 10.1645 6.72268 9.94777 6.83879L8.411 7.72902L7.36681 8.30961L5.83008 9.19982C5.63306 9.31593 5.37693 9.31593 5.16021 9.19982L3.9387 8.50311C3.74168 8.38699 3.60377 8.17414 3.60377 7.9419V6.56785C3.60377 6.33562 3.72198 6.12274 3.9387 6.00663L5.14051 5.32928C5.33753 5.21317 5.59365 5.21317 5.81037 5.32928L7.01219 6.00663C7.20919 6.12274 7.34712 6.33562 7.34712 6.56785V7.45808L8.39131 6.85815V5.96792C8.39131 5.73569 8.27312 5.52281 8.05639 5.40669L5.83008 4.12942C5.63306 4.0133 5.37693 4.0133 5.16021 4.12942L2.8945 5.40669C2.67778 5.52281 2.55957 5.73569 2.55957 5.96792V8.54184C2.55957 8.77406 2.67778 8.98696 2.8945 9.10307L5.16021 10.3803C5.35723 10.4965 5.61336 10.4965 5.83008 10.3803L7.36681 9.50947L8.411 8.90954L9.94777 8.03866C10.1448 7.92255 10.4009 7.92255 10.6176 8.03866L11.8194 8.71601C12.0164 8.83212 12.1544 9.04502 12.1544 9.27724V10.6513C12.1544 10.8835 12.0362 11.0964 11.8194 11.2125L10.6176 11.9092C10.4206 12.0253 10.1645 12.0253 9.94777 11.9092L8.74597 11.2319C8.54893 11.1158 8.411 10.9029 8.411 10.6706V9.78042L7.36681 10.3803V11.2706C7.36681 11.5028 7.48504 11.7157 7.70173 11.8318L9.96747 13.1091C10.1645 13.2252 10.4206 13.2252 10.6373 13.1091L12.903 11.8318C13.1 11.7157 13.238 11.5028 13.238 11.2706V8.69664C13.238 8.46442 13.1197 8.25156 12.903 8.13545L10.6176 6.83879Z" fill="white"/>
</g>
</g>
<path d="M0.25 8.77142C0.25 4.49122 3.71979 1.02142 8 1.02142C12.2802 1.02142 15.75 4.49122 15.75 8.77142C15.75 13.0516 12.2802 16.5214 8 16.5214C3.71979 16.5214 0.25 13.0516 0.25 8.77142Z" stroke="#FAFAFA" stroke-opacity="0.16" stroke-width="0.5"/>
<defs>
<filter id="filter0_b_671_1393" x="-2.22467" y="-1.45324" width="20.4493" height="20.4493" filterUnits="userSpaceOnUse" color-interpolation-filters="sRGB">
<feFlood flood-opacity="0" result="BackgroundImageFix"/>
<feGaussianBlur in="BackgroundImageFix" stdDeviation="1.11233"/>
<feComposite in2="SourceAlpha" operator="in" result="effect1_backgroundBlur_671_1393"/>
<feBlend mode="normal" in="SourceGraphic" in2="effect1_backgroundBlur_671_1393" result="shape"/>
</filter>
<clipPath id="clip0_671_1393">
<path d="M0 8.77142C0 4.35315 3.58172 0.771423 8 0.771423C12.4183 0.771423 16 4.35315 16 8.77142C16 13.1897 12.4183 16.7714 8 16.7714C3.58172 16.7714 0 13.1897 0 8.77142Z" fill="white"/>
</clipPath>
</defs>
</svg>
