<svg width="24" height="24" viewBox="0 0 24 24" fill="none" xmlns="http://www.w3.org/2000/svg">
<path d="M14 15.9995C14 17.7695 13.23 19.3695 12 20.4595C10.94 21.4195 9.54 21.9995 8 21.9995C4.69 21.9995 2 19.3095 2 15.9995C2 13.2395 3.88 10.8995 6.42 10.2095C7.11 11.9495 8.59 13.2895 10.42 13.7895C10.92 13.9295 11.45 13.9995 12 13.9995C12.55 13.9995 13.08 13.9295 13.58 13.7895C13.85 14.4695 14 15.2195 14 15.9995Z" stroke="#FAFAFA" stroke-width="1.5" stroke-linecap="round" stroke-linejoin="round"/>
<path d="M18 7.99951C18 8.77951 17.85 9.52951 17.58 10.2095C16.89 11.9495 15.41 13.2895 13.58 13.7895C13.08 13.9295 12.55 13.9995 12 13.9995C11.45 13.9995 10.92 13.9295 10.42 13.7895C8.59 13.2895 7.11 11.9495 6.42 10.2095C6.15 9.52951 6 8.77951 6 7.99951C6 4.68951 8.69 1.99951 12 1.99951C15.31 1.99951 18 4.68951 18 7.99951Z" stroke="#FAFAFA" stroke-width="1.5" stroke-linecap="round" stroke-linejoin="round"/>
<path d="M22 15.9995C22 19.3095 19.31 21.9995 16 21.9995C14.46 21.9995 13.06 21.4195 12 20.4595C13.23 19.3695 14 17.7695 14 15.9995C14 15.2195 13.85 14.4695 13.58 13.7895C15.41 13.2895 16.89 11.9495 17.58 10.2095C20.12 10.8995 22 13.2395 22 15.9995Z" stroke="#FAFAFA" stroke-width="1.5" stroke-linecap="round" stroke-linejoin="round"/>
</svg>
