<svg width="26" height="26" viewBox="0 0 26 26" fill="none" xmlns="http://www.w3.org/2000/svg">
<g id="Polygon">
<path id="Vector" d="M17.5807 9.61788C17.2359 9.41467 16.7877 9.41467 16.4085 9.61788L13.7191 11.1758L11.8918 12.1918L9.20251 13.7497C8.85773 13.9529 8.40951 13.9529 8.03025 13.7497L5.8926 12.5304C5.54782 12.3272 5.30647 11.9547 5.30647 11.5483V9.14373C5.30647 8.73733 5.51334 8.36479 5.8926 8.16158L7.99577 6.97623C8.34055 6.77303 8.78877 6.77303 9.16803 6.97623L11.2712 8.16158C11.616 8.36479 11.8573 8.73733 11.8573 9.14373V10.7016L13.6847 9.65174V8.09385C13.6847 7.68744 13.4778 7.3149 13.0986 7.1117L9.20251 4.87646C8.85773 4.67326 8.40951 4.67326 8.03025 4.87646L4.06526 7.1117C3.686 7.3149 3.47913 7.68744 3.47913 8.09385V12.5982C3.47913 13.0046 3.686 13.3772 4.06526 13.5804L8.03025 15.8156C8.37503 16.0188 8.82325 16.0188 9.20251 15.8156L11.8918 14.2916L13.7191 13.2417L16.4085 11.7176C16.7532 11.5144 17.2014 11.5144 17.5807 11.7176L19.6839 12.903C20.0286 13.1062 20.27 13.4788 20.27 13.8852V16.2897C20.27 16.6962 20.0632 17.0687 19.6839 17.2719L17.5807 18.4911C17.2359 18.6943 16.7877 18.6943 16.4085 18.4911L14.3053 17.3057C13.9605 17.1026 13.7191 16.73 13.7191 16.3236V14.7657L11.8918 15.8156V17.3735C11.8918 17.7798 12.0987 18.1524 12.4779 18.3556L16.4429 20.5908C16.7877 20.794 17.2359 20.794 17.6152 20.5908L21.5802 18.3556C21.925 18.1524 22.1663 17.7798 22.1663 17.3735V12.8691C22.1663 12.4627 21.9594 12.0902 21.5802 11.887L17.5807 9.61788Z" fill="white"/>
</g>
</svg>
