<svg width="23" height="22" viewBox="0 0 23 22" fill="none" xmlns="http://www.w3.org/2000/svg">
<g id="Wallet">
<rect x="0.61084" y="0.111328" width="21.7778" height="21.7778" rx="4.66667" fill="#3B99FC"/>
<path id="Combined-Shape" d="M7.13616 8.17994C9.54609 5.77 13.4534 5.77 15.8633 8.17994L16.1534 8.46998C16.2739 8.59047 16.2739 8.78584 16.1534 8.90633L15.1612 9.8985C15.1009 9.95875 15.0033 9.95875 14.943 9.8985L14.5439 9.49937C12.8626 7.81814 10.1368 7.81814 8.45559 9.49937L8.02816 9.92681C7.96791 9.98706 7.87023 9.98706 7.80998 9.92681L6.81781 8.93464C6.69732 8.81414 6.69732 8.61878 6.81781 8.49828L7.13616 8.17994ZM17.9152 10.2318L18.7982 11.1149C18.9187 11.2354 18.9187 11.4307 18.7982 11.5512L14.8166 15.533C14.6961 15.6535 14.5007 15.6535 14.3802 15.533C14.3802 15.533 14.3802 15.533 14.3802 15.533L11.5543 12.707C11.5242 12.6769 11.4753 12.6769 11.4452 12.707C11.4452 12.707 11.4452 12.707 11.4452 12.707L8.61934 15.533C8.49884 15.6535 8.30348 15.6535 8.18298 15.533C8.18298 15.533 8.18298 15.533 8.18298 15.533L4.20121 11.5512C4.08072 11.4307 4.08072 11.2353 4.20121 11.1148L5.08425 10.2318C5.20474 10.1113 5.40011 10.1113 5.5206 10.2318L8.34658 13.0578C8.3767 13.0879 8.42554 13.0879 8.45567 13.0578C8.45567 13.0578 8.45567 13.0578 8.45567 13.0578L11.2815 10.2318C11.402 10.1113 11.5974 10.1113 11.7179 10.2318C11.7179 10.2318 11.7179 10.2318 11.7179 10.2318L14.5438 13.0578C14.574 13.0879 14.6228 13.0879 14.6529 13.0578L17.4789 10.2318C17.5994 10.1113 17.7947 10.1113 17.9152 10.2318Z" fill="white"/>
</g>
</svg>
